<svg id="Layer_1" data-name="Layer 1" xmlns="http://www.w3.org/2000/svg" viewBox="0 0 61.17 57.83"><defs><style>.cls-1{fill:#6e6b6a;}</style></defs><title>W17-Shop-Landing-Icons</title><path class="cls-1" d="M39.83,57.83A6.13,6.13,0,0,1,39,57.78c-1.54-.22-2.83-2.27-4.34-4.64-1-1.62-2.57-4.06-3.43-4.06s-2.4,2.45-3.43,4.06c-1.5,2.37-2.8,4.42-4.34,4.64-2.55.37-11.74-1.38-13.46-3.45C8.12,52,8.7,38.29,9,35.67c0.44-4.78,16.44-6.27,22.21-6.27S53,30.89,53.47,35.67c0.26,2.62.84,16.33-1.06,18.66C50.87,56.23,43.14,57.83,39.83,57.83ZM31.22,47.48c1.73,0,3.21,2.34,4.78,4.81,1,1.6,2.41,3.8,3.21,3.92,2.43,0.35,10.84-1.51,12-2.88s1.18-12.74.7-17.49C51.67,33.7,41.89,31,31.21,31s-20.44,2.7-20.66,4.83c-0.48,4.75-.45,16.07.7,17.49s9.54,3.23,12,2.88c0.81-.12,2.2-2.31,3.21-3.92,1.56-2.47,3-4.8,4.78-4.81h0Z"/><path class="cls-1" d="M22.21,54.7c-1.85,0-8.94-1.32-9.66-2.6S11.4,43.59,12,37.4c0.1-1,1.31-2.42,6.52-3.55a60.31,60.31,0,0,1,12.65-1.38,0.6,0.6,0,1,1,0,1.2h0A59.06,59.06,0,0,0,18.8,35c-5.39,1.18-5.58,2.49-5.59,2.5-0.64,6.41-.13,13.08.38,14,0.6,0.62,7,2.11,8.61,2a6.56,6.56,0,0,0,2-2.49c0.17-.31.35-0.61,0.53-0.9,1.62-2.56,4.05-5.61,6.43-5.61h0a0.6,0.6,0,1,1,0,1.2c-1.41,0-3.39,1.84-5.42,5-0.17.27-.33,0.56-0.5,0.85a7.47,7.47,0,0,1-2.54,3,0.6,0.6,0,0,1-.22.08H22.21Z"/><path class="cls-1" d="M40.18,54.7H39.9a0.6,0.6,0,0,1-.22-0.08,7.46,7.46,0,0,1-2.54-3c-0.16-.29-0.33-0.58-0.5-0.85-2-3.21-4-5-5.42-5a0.6,0.6,0,0,1,0-1.2h0c1.91,0,4.07,1.89,6.43,5.61,0.18,0.29.35,0.59,0.53,0.9a6.56,6.56,0,0,0,2,2.49c1.62,0.11,8-1.38,8.64-2,0.48-.86,1-7.52.35-13.93,0,0-.19-1.33-5.59-2.5a59.06,59.06,0,0,0-12.36-1.42,0.6,0.6,0,1,1,0-1.2,60.31,60.31,0,0,1,12.62,1.39C49,35,50.27,36.4,50.37,37.4c0.62,6.17.22,13.35-.53,14.68S42,54.7,40.18,54.7Z"/><path class="cls-1" d="M9.88,52.4h-2A1.86,1.86,0,0,1,6,50.56V38.06A1.86,1.86,0,0,1,7.86,36.2H9.53a0.6,0.6,0,1,1,0,1.2H7.86a0.66,0.66,0,0,0-.66.66V50.54a0.66,0.66,0,0,0,.66.66h2A0.6,0.6,0,0,1,9.88,52.4Z"/><path class="cls-1" d="M54.56,52.4h-2a0.6,0.6,0,1,1,0-1.2h2a0.66,0.66,0,0,0,.66-0.66V38.06a0.66,0.66,0,0,0-.66-0.66H52.89a0.6,0.6,0,0,1,0-1.2h1.67a1.86,1.86,0,0,1,1.86,1.86h0V50.54A1.86,1.86,0,0,1,54.56,52.4Z"/></svg>