<svg id="Layer_1" data-name="Layer 1" xmlns="http://www.w3.org/2000/svg" viewBox="0 0 61.17 57.83"><defs><style>.cls-1{fill:#6d6a69}</style></defs><path class="cls-1" d="M40.6 57.83h-20c-.9 0-2.8-.3-2.8-3.5l.2-12.7-2.4 10.8c-.6 2.4-2 2.7-2.8 2.7A2.49 2.49 0 0 1 12 55l-5.1-.7a2.6 2.6 0 0 1-2.1-1.6 4.5 4.5 0 0 1 0-2l6.5-29.1v-.1c1.3-3 6.9-5.2 9.3-5.9A14.1 14.1 0 0 1 22.8 9a9.09 9.09 0 0 1 7.7-3.9 9.21 9.21 0 0 1 8 4 12.45 12.45 0 0 1 2.1 6.5c2.3.7 7.8 2.9 9.1 5.8l.1.2 6.5 29.1a2.76 2.76 0 0 1 0 2 2.43 2.43 0 0 1-2 1.6l-5.3.8c-.2 0-.4.1-.7.1-.8 0-2.2-.3-2.7-2.7l-2.4-10.8.2 12.7c.1 3.13-1.9 3.43-2.8 3.43zm-21.8-24.9a.86.86 0 0 1 .8.8l-.3 20.6c0 1.8.9 1.8 1.2 1.8h20.1c.4 0 1.2 0 1.2-1.9l-.3-20.6a.77.77 0 0 1 .7-.8.87.87 0 0 1 .9.6l4.1 18.7c.3 1.4.9 1.4 1.2 1.4h.4l5.3-.8a.85.85 0 0 0 .8-.5 2.29 2.29 0 0 0-.1-1.1L48.3 22c-.9-2.2-6.1-4.4-8.5-5a1 1 0 0 1-.5-.4.9.9 0 0 1-.1-.5 11 11 0 0 0-2.6-6.9 7.83 7.83 0 0 0-6-2.4A7.38 7.38 0 0 0 25 9.13a10.78 10.78 0 0 0-2.6 7 .75.75 0 0 1-.1.5 1 1 0 0 1-.5.4c-2.5.6-7.7 2.8-8.7 5.1L6.4 51a2.33 2.33 0 0 0-.1 1.1 1.06 1.06 0 0 0 .9.5l5.1.7c.2 0 .3.1.5.1s.9 0 1.2-1.4l4.1-18.5a.75.75 0 0 1 .7-.57z"/><path class="cls-1" d="M23.7 25.63a.73.73 0 0 1-.6-.7l.8-5.6a.61.61 0 0 1 1.2.2l-.8 5.6a.63.63 0 0 1-.6.5zm13.6 0a.63.63 0 0 1-.6-.5l-.8-5.6a.75.75 0 0 1 .5-.7.64.64 0 0 1 .7.5l.8 5.6a.73.73 0 0 1-.6.7zm-6.2.7a.5.5 0 1 1-.5-.5.47.47 0 0 1 .5.5"/><path class="cls-1" d="M30.6 27a.7.7 0 1 1 .7-.7.68.68 0 0 1-.7.7zm0-1a.3.3 0 1 0 .3.3.32.32 0 0 0-.3-.3zm.5-6.57a.5.5 0 1 1-.5-.5.47.47 0 0 1 .5.5"/><path class="cls-1" d="M30.6 20.13a.7.7 0 1 1 .7-.7.68.68 0 0 1-.7.7zm0-1a.3.3 0 1 0 .3.3.32.32 0 0 0-.3-.3zm.5 14a.5.5 0 1 1-.5-.5.54.54 0 0 1 .5.5"/><path class="cls-1" d="M30.6 33.93a.7.7 0 1 1 .7-.7.75.75 0 0 1-.7.7zm0-1.1a.3.3 0 1 0 .3.3.32.32 0 0 0-.3-.3zm.5 7.17a.5.5 0 1 1-.5-.5.47.47 0 0 1 .5.5"/><path class="cls-1" d="M30.6 40.73a.7.7 0 1 1 .7-.7.68.68 0 0 1-.7.7zm0-1a.3.3 0 1 0 .3.3.32.32 0 0 0-.3-.3zm.5 7.2a.5.5 0 1 1-.5-.5.47.47 0 0 1 .5.5"/><path class="cls-1" d="M30.6 47.63a.7.7 0 1 1 .7-.7.68.68 0 0 1-.7.7zm0-1a.3.3 0 1 0 .3.3.32.32 0 0 0-.3-.3zm.5 7.2a.5.5 0 1 1-.5-.5.47.47 0 0 1 .5.5"/><path class="cls-1" d="M30.6 54.53a.7.7 0 1 1 .7-.7.68.68 0 0 1-.7.7zm0-1a.3.3 0 1 0 .3.3.32.32 0 0 0-.3-.3zm-3-36.8h1.2v39.5h-1.2zm4.8 0h1.2v39.5h-1.2z"/><path class="cls-1" d="M36.3 16.93H24.9a.89.89 0 0 1-.8-1A8.27 8.27 0 0 1 25.2 12a5.84 5.84 0 0 1 5.3-3 6.15 6.15 0 0 1 5.3 2.6 7.57 7.57 0 0 1 1.3 4.9 1 1 0 0 1-.8.43zm-10.6-1.6h9.8a6.53 6.53 0 0 0-1.5-3.5 4.67 4.67 0 0 0-3.5-1.4 4.22 4.22 0 0 0-3.3 1.4 6.53 6.53 0 0 0-1.5 3.5zm-1.2 37.1H19v-1.2h4.9v-8.8h-4.6v-1.2h5.2a.65.65 0 0 1 .6.6v10a.65.65 0 0 1-.6.6zm17.7 0h-5.5a.65.65 0 0 1-.6-.6v-10a.65.65 0 0 1 .6-.6h5.2v1.2h-4.6v8.8h4.9v1.2z"/><path class="cls-1" d="M18.9 44.23h5.9v1.2h-5.9zm17.6 0h5.9v1.2h-5.9z"/></svg>