<svg id="Layer_1" data-name="Layer 1" xmlns="http://www.w3.org/2000/svg" viewBox="0 0 61.17 57.83"><defs><style>.cls-1,.cls-2{fill:none;stroke:#6d6a69;stroke-linecap:round;stroke-linejoin:round}.cls-1{stroke-width:1.6px}.cls-2{stroke-width:1.2px}</style></defs><path class="cls-1" d="M26.51 46.33c-1.1 0-2 2-2 2l-2.3 6.5a2 2 0 0 0 2 2h17.2a2 2 0 0 0 2-2l-2.2-6.5s-.9-2-2-2m4.2-22.7a10.2 10.2 0 0 0-20.4 0c0 .5 1.1 20.6 1.1 20.6a2 2 0 0 0 2 2h14.1a2 2 0 0 0 2-2s1.2-20.1 1.2-20.6zm-.1 6.8a2.47 2.47 0 0 1 3.4-.9l2.1 1.2a2.47 2.47 0 0 1 .9 3.4L42.31 45"/><path class="cls-2" d="M33.21 48.53v-4.5m-4.5 4v-3.4m9 3.4v-3.4"/><path class="cls-1" d="M15.31 40.63c-1.1 0-2 2-2 2l-2.2 6.5a2 2 0 0 0 2 2h10m7.5-38.5A10.23 10.23 0 0 0 11.71 18c0 .5 1.1 20.6 1.1 20.6a2 2 0 0 0 2 2h9.1"/><path class="cls-2" d="M21.91 42.93v-4.5m-4.5 3.9v-3.3m20.3-13.1a2.48 2.48 0 0 1-2.5 2.5h-4.1a2.48 2.48 0 0 1-2.5-2.5 2.48 2.48 0 0 1 2.5-2.5h4.1a2.54 2.54 0 0 1 2.5 2.5z"/></svg>