<svg id="Layer_1" data-name="Layer 1" xmlns="http://www.w3.org/2000/svg" viewBox="0 0 61.17 57.83"><defs><style>.cls-1{fill:none;stroke:#6d6a69;stroke-linejoin:round;stroke-width:1.6px}</style></defs><path class="cls-1" d="M16.11 56.33c-.5-.1-1.3-.2-1.5-4.4-.3-1.5.7-30.7 1.4-32.2a1.4 1.4 0 0 1 1.1-.9 119.46 119.46 0 0 1 13.6 1.4c3.9 1.1 3.1 3 3.1 3l-2.7 18.1s4.2 2.7 5.3 2.7c9.8 0 9.8 5.4 10.2 6.4v3.7c-.1.5.2 2-7.9 2.6-1.2.1-3.1.1-5.4.1-7.2 0-17-.5-17.2-.5z"/><path class="cls-1" d="M46.61 50.93c0 .5-.6 2-8.6 2.5-1.2.1-3.1.1-5.4.1-7.2 0-17-.5-17.2-.5h-.1"/><path d="M29.01 24.63l3.8.4m-4.2 3.2l3.8.4m-4.4 3.3l3.8.4m-4.2 3.2l3.8.4m-4 3.3l3.8.3m.2 5.1l1.1-1.6m1.7 3l1-1.6m-20-15.2s3.7-3 5.6-10.2m-6.1 24.1s5.9 4.1 5.7 10.2" stroke-linecap="round" stroke-width="1.2" fill="none" stroke="#6d6a69" stroke-linejoin="round"/></svg>