<svg xmlns="http://www.w3.org/2000/svg" viewBox="0 0 88 32"><path fill="#FFF" d="M16.6 14.3V20c0 1.4.7 2.2 2.2 2.2h.6c1.4 0 2.2-.7 2.2-2.2v-2.8h3.3v2.7c0 3.6-1.8 5.5-5.5 5.5h-.7c-3.6 0-5.5-1.8-5.5-5.1V6.4c0-4.1 1.8-5.9 5.5-5.9h.7c3.6 0 5.5 1.8 5.5 5.5v8.3h-8.3zm0-3.3h4.9V5.9c0-1.4-.7-2.2-2.2-2.2h-.5c-1.4 0-2.2.7-2.2 2.2V11zM27.1.8h3.4v1.6c.8-.9 2.2-1.8 4.2-1.8 2.9 0 4.4 1.9 4.4 4.8v15.2c0 2.9-1.4 4.8-4.4 4.8-2 0-3.4-.9-4.2-1.8v7.8h-3.4V.8zm3.5 20.1c.9.8 2 1.3 3.2 1.3 1.3 0 2-.6 2-2V5.7c0-1.4-.7-2-2-2-1.1 0-2.2.5-3.2 1.3v15.9zm10.6-4.3c0-3 1-4.2 3.6-5.1l4.6-1.6v-4c0-1.4-.7-2.2-2.2-2.2h-.6c-1.4 0-2.2.8-2.2 2.2v3.4h-3.3V6c0-3.6 1.8-5.5 5.5-5.5h.6c3.6 0 5.5 1.8 5.5 5.5v19.1h-3.4v-1.5c-.9.9-2.2 1.8-4.2 1.8-2.7 0-4-1.6-4-4.3v-4.5zm8.2 4.4v-8l-3.1 1.2c-1.3.5-1.7 1.1-1.7 2.5v3.7c0 1.2.6 1.8 1.7 1.8 1-.1 2-.4 3.1-1.2zm17.3 4.1h-3.4V5.5c0-1.2-.6-1.8-1.6-1.8-.9 0-1.9.4-3.2 1.2V25H55V.8h3.4v1.6c1-.9 2.3-1.8 4.2-1.8 1.8 0 2.9.7 3.6 2 1.2-1 2.7-2 4.6-2 2.7 0 4 1.6 4 4.3v20.3h-3.4V5.5c0-1.2-.6-1.8-1.6-1.8-.9 0-1.9.4-3.2 1.2v20.2z"/><path fill="#3AC2D7" d="M8.8 3v4.5L3 13l5.8 5.4V23L0 14.7v-3.3L8.8 3zM88 11.4v3.3L79.2 23v-4.6L85 13l-5.8-5.5V3l8.8 8.4z"/></svg>