<svg id="Layer_1" data-name="Layer 1" xmlns="http://www.w3.org/2000/svg" viewBox="0 0 61.17 57.83"><defs><style>.cls-1{fill:none;stroke:#6d6a69;stroke-linejoin:round;stroke-width:1.6px}</style></defs><path class="cls-1" d="M55.53 50.63l-6.5-29v-.1c-1.1-2.6-6.7-4.9-9.1-5.5.1-.3-.1-10.3-9.4-10.3-8.7 0-9.1 10-9 10.2-2.4.6-8.2 2.9-9.3 5.6l-6.6 29.1a4 4 0 0 0-.1 1.5A1.74 1.74 0 0 0 7 53.23l5.1.7c.2 0 .4.1.6.1 1 0 1.7-.7 2-2l4.1-18.5-.3 20.6c0 2.2 1.1 2.7 2 2.7h20c.9 0 2-.5 2-2.7l-.3-20.6L46.33 52c.3 1.4 1 2 1.9 2a1.27 1.27 0 0 0 .6-.1l5.2-.8a1.57 1.57 0 0 0 1.4-1.1 1.34 1.34 0 0 0 .1-1.37z"/><path class="cls-1" d="M24.93 15.43l5.5 1.6 5.9-1.6c.1-.2-.1-6.4-5.8-6.4-5.53-.03-5.8 6.3-5.6 6.4zm5.5 1.6v38.9"/><path d="M21.43 47.83l5.7-4.9m12.5 4.9l-5.7-4.9m0-11.3v-7.9" stroke-linecap="round" stroke-width="1.2" fill="none" stroke="#6d6a69" stroke-linejoin="round"/></svg>