<svg data-name="Layer 1" xmlns="http://www.w3.org/2000/svg" viewBox="0 0 61.17 57.83"><path d="M49 41l-1.56-.68a3.45 3.45 0 0 0-4.59 1.49L42 43.6v.1a3.39 3.39 0 0 0 2.15 4.16l.41.14-.76 2h-.64a27.58 27.58 0 0 0-4.32.74c-2.36.51-5.59 1.2-6.54.9-1.3-.4-7.3-2.77-10.53-4.05l-.32-.09-.71-.29L22.92 45l.16.16.08.08a3.49 3.49 0 0 0 2.45 1h.05a3.5 3.5 0 0 0 2.47-1.06l6.36-6.36a3.52 3.52 0 0 0-.06-5l-1.37-1.32a3.52 3.52 0 0 0-5 .06l-6.36 6.36a3.52 3.52 0 0 0 .06 5l.28.28-2.29 2.29a18.31 18.31 0 0 1-2.22-9.13 52.36 52.36 0 0 1 1.08-10.41c0-.15.88-3.6-.64-5.58l-.07-.08c-1-1-3.13-.87-3.47-.83a1.16 1.16 0 0 0-.85.4 1.65 1.65 0 0 0-.35 1.32 44.76 44.76 0 0 1-.19 5.16 47.41 47.41 0 0 1-2.36 9 .8.8 0 0 0 0 .2c-.92 9.23-.85 9.38-.72 9.64s1.11 2.12 1.11 2.12a.81.81 0 0 0 .28.3c.06 0 5.6 3.57 6.34 8.34a.8.8 0 0 0 .79.68h28.3a1.09 1.09 0 0 0 1.18-.83c.27-1 .63-2.29.73-2.52a.8.8 0 0 0 0-.68 6 6 0 0 0-3.7-3.3l.67-1.78a3.38 3.38 0 0 0 1.54.37 3.44 3.44 0 0 0 3-1.8v-.05l.8-1.8v-.1A3.39 3.39 0 0 0 49 41zm-26.07-1l6.31-6.31a1.88 1.88 0 0 1 1.36-.57 2 2 0 0 1 1.4.58l1.3 1.3a1.94 1.94 0 0 1 0 2.76l-6.3 6.3a1.9 1.9 0 0 1-1.35.58 1.81 1.81 0 0 1-1.41-.59l-1.31-1.31a1.94 1.94 0 0 1 0-2.74zm-8.27-12.49a45.77 45.77 0 0 0 .2-5.47 3.56 3.56 0 0 1 1.91.36c.82 1.15.51 3.39.32 4.2A53.89 53.89 0 0 0 16 37.31a19.88 19.88 0 0 0 2 9.18 58.19 58.19 0 0 0-6.5-1.55c.12-1.69.49-5.54.75-8.13a49 49 0 0 0 2.41-9.3zM47.09 54c-.19.55-.43 1.44-.6 2.06H19.12c-1.09-4.67-5.74-8-6.75-8.66l-.37-.76c1.25.25 3.8.87 9 2.35 3.14 1.25 9.43 3.75 10.87 4.21 1.26.4 3.84-.11 7.36-.86a28.45 28.45 0 0 1 4-.7A4.38 4.38 0 0 1 47.09 54zm2.52-9.31l-.76 1.72a1.84 1.84 0 0 1-2.46.72l-1.68-.73a1.8 1.8 0 0 1-1.19-2.17l.75-1.69a1.84 1.84 0 0 1 2.47-.74l1.68.73a1.8 1.8 0 0 1 1.19 2.13z" fill="#6d6a69"/></svg>