<svg id="Layer_1" data-name="Layer 1" xmlns="http://www.w3.org/2000/svg" viewBox="0 0 61.17 57.83"><defs><style>.cls-1{fill:none;stroke:#6d6a69;stroke-linejoin:round;stroke-width:1.6px}</style></defs><path class="cls-1" d="M22 12.73c-1.1.1-10.3 3.3-11.9 7.3v.1l-5.7 27.5a5.14 5.14 0 0 0-.1 1.7 1.82 1.82 0 0 0 1.6 1.1l3.3.8c.2 0 .4.1.6.1 1.1 0 1.8-.7 2.1-2.2l5.3-20.3-.9 25.1c0 2.4 1.2 2.9 2.2 2.9h24c1 0 2.2-.5 2.2-2.9l-.9-25 5.3 20.2c.3 1.5 1 2.2 2.1 2.2a1.27 1.27 0 0 0 .6-.1l3.4-.9a1.87 1.87 0 0 0 1.5-1.1 2.54 2.54 0 0 0-.1-1.7l-5.7-27.6v-.1c-1.6-4-10.8-7.1-11.9-7.3"/><path stroke-linecap="round" stroke-width="1.2" fill="none" stroke="#6d6a69" stroke-linejoin="round" d="M30.55 12.03v13.5"/><path class="cls-1" d="M39 13a2.9 2.9 0 0 1-2.9 2.9H24.85a2.9 2.9 0 0 1-2.9-2.9V8.83a2.9 2.9 0 0 1 2.9-2.9h11.3A2.9 2.9 0 0 1 39 8.83V13z"/><path class="cls-1" d="M39 8.23a2.9 2.9 0 0 1-2.9 2.9H24.85a2.9 2.9 0 0 1-2.9-2.9"/></svg>