<svg id="Layer_1" data-name="Layer 1" xmlns="http://www.w3.org/2000/svg" viewBox="0 0 61.17 57.83"><defs><style>.cls-1,.cls-2,.cls-3{fill:none;stroke:#6d6a69;stroke-linejoin:round;}.cls-1{stroke-width:1.6px;}.cls-2,.cls-3{stroke-width:1.2px;}.cls-3{stroke-linecap:round;}</style></defs><title>W17-Shop-Landing-Icons</title><path class="cls-1" d="M22,12.23l-1.6.6c-1.1.1-8.7,3.3-10.3,7.3v0.1l-7.3,27.5a5.14,5.14,0,0,0-.1,1.7,1.82,1.82,0,0,0,1.6,1.1l5.7,0.8c0.2,0,.4.1,0.6,0.1,1.1,0,1.8-.7,2.1-2.2l4.5-20.3-0.9,25c0,2.4,1.2,2.9,2.2,2.9h24c1,0,2.2-.5,2.2-2.9l-0.9-25,4.5,20.3c0.3,1.5,1,2.2,2.1,2.2a1.27,1.27,0,0,0,.6-0.1l5.8-.9a1.87,1.87,0,0,0,1.5-1.1,2.54,2.54,0,0,0-.1-1.7L50.95,20v-0.1c-1.6-4-9.2-7.1-10.3-7.3l-1.6-.4"/><line class="cls-2" x1="30.55" y1="10.93" x2="30.55" y2="56.03"/><path class="cls-1" d="M39,13.13a2.9,2.9,0,0,1-2.9,2.9H24.85a2.9,2.9,0,0,1-2.9-2.9V8.93A2.9,2.9,0,0,1,24.85,6h11.3A2.9,2.9,0,0,1,39,8.93v4.2h0Z"/><path class="cls-1" d="M39,8.33a2.9,2.9,0,0,1-2.9,2.9H24.85a2.9,2.9,0,0,1-2.9-2.9"/><polyline class="cls-3" points="20.15 51.73 30.55 51.73 40.95 51.73"/><polyline class="cls-3" points="20.15 43.93 30.55 43.93 40.95 43.93"/><polyline class="cls-3" points="20.15 36.13 30.55 36.13 40.95 36.13"/><polyline class="cls-3" points="20.15 28.33 30.55 28.33 40.95 28.33"/><polyline class="cls-3" points="20.15 20.53 30.55 20.53 40.95 20.53"/><path class="cls-3" d="M4.55,42.93A1.82,1.82,0,0,0,6.15,44l4.1,0.8"/><path class="cls-3" d="M6.15,34.93A1.82,1.82,0,0,0,7.75,36l4.1,0.8"/><path class="cls-3" d="M8.55,26.93a1.82,1.82,0,0,0,1.6,1.1l4.1,0.8"/><path class="cls-3" d="M11.15,19.73a1.82,1.82,0,0,0,1.6,1.1l4.1,0.8"/><path class="cls-3" d="M50.55,44.63l4.1-.8a2,2,0,0,0,1.6-1.1"/><path class="cls-3" d="M48.85,36.93l4.1-.8a2,2,0,0,0,1.6-1.1"/><path class="cls-3" d="M46.45,28.93l4.1-.8a2,2,0,0,0,1.6-1.1"/><path class="cls-3" d="M43.75,21.73l4.1-.8a2,2,0,0,0,1.6-1.1"/></svg>