<svg data-name="Layer 1" xmlns="http://www.w3.org/2000/svg" viewBox="0 0 250.3 88.07"><path d="M47.22 39.33V55.5q0 6.15 6.15 6.15h1.79q6.15 0 6.15-6.15v-7.95h9.48v7.56c0 10.38-5.25 15.64-15.64 15.64h-2.02c-10.38 0-15.64-5.25-15.64-14.42V16.85C37.49 5.25 42.74 0 53.13 0h2.05c10.38 0 15.64 5.26 15.64 15.64v23.69zm0-9.38h13.91v-14.7q0-6.15-6.15-6.15h-1.54q-6.15 0-6.15 6.15zM77.13.77h9.74v4.49A16.3 16.3 0 0 1 98.79 0c8.33 0 12.43 5.51 12.43 13.71v43.32c0 8.2-4.1 13.71-12.43 13.71a16.7 16.7 0 0 1-11.92-5v22.33h-9.74zm9.74 57.16a13.77 13.77 0 0 0 9 3.59c3.59 0 5.64-1.67 5.64-5.64v-41c0-4-2.05-5.64-5.64-5.64a13.77 13.77 0 0 0-9 3.59zm30.26-12.05c0-8.59 2.82-12 10.25-14.61l13.07-4.49V15.25c0-4.1-2.05-6.28-6.15-6.28h-1.59c-4.1 0-6.15 2.18-6.15 6.28v9.8h-9.43v-9.42c0-10.38 5.25-15.64 15.64-15.64h1.84c10.38 0 15.64 5.26 15.64 15.64v54.34h-9.74v-4.36a16.46 16.46 0 0 1-11.92 5.13c-7.82 0-11.41-4.49-11.41-12.18zm23.33 12.43V35.49l-8.84 3.35c-3.59 1.41-4.74 3.2-4.74 7.18v10.53c0 3.33 1.67 5 4.74 5s5.63-1.06 8.84-3.24zm49.13 11.67h-9.74V14.23c0-3.46-1.67-5-4.61-5-2.69 0-5.51 1-9 3.46v57.29h-9.71V.77h9.74v4.49C169.09 2.57 172.81 0 178.19 0c5 0 8.33 2.05 10.12 5.64 3.46-2.95 7.56-5.64 13.2-5.64 7.56 0 11.41 4.61 11.41 12.18v57.8h-9.79V14.23c0-3.46-1.67-5-4.61-5-2.69 0-5.51 1-9 3.46z" fill="#464547"/><path d="M25.03 7.14v12.73L8.64 35.49l16.39 15.34v13l-25-23.52v-9.36zM250.3 30.95v9.36l-25 23.52v-13l16.39-15.34-16.39-15.62V7.14z" fill="#39c2d7"/></svg>