<svg data-name="Layer 1" xmlns="http://www.w3.org/2000/svg" viewBox="0 0 61.17 57.83"><path d="M36.8 12.19a.8.8 0 0 0-.74.49c-1.24 2.94-4.4 3.17-5.34 3.17h-.29c-2.86 0-5.39-3.3-5.42-3.33a.8.8 0 0 0-.64-.32h-1.52C20.08 12.19 12.59 16 11 20a.74.74 0 0 0 0 .13L2.85 47.69a3.14 3.14 0 0 0-.08 1.68 1.9 1.9 0 0 0 1.57 1.14l5.71.83a3 3 0 0 0 .63.07c1.08 0 1.79-.73 2.11-2.18l4.54-20.33L16.4 54c0 2.38 1.19 2.88 2.19 2.88h24c1 0 2.19-.5 2.18-2.91l-.93-25 4.54 20.32c.33 1.47 1 2.2 2.09 2.2a2.7 2.7 0 0 0 .59-.07l5.83-.85a1.85 1.85 0 0 0 1.51-1.13 3.13 3.13 0 0 0-.08-1.68l-8.06-27.63a.76.76 0 0 0 0-.13c-1.64-4-8.54-7.82-11.67-7.82z" stroke-width="1.6" fill="none" stroke="#6d6a69" stroke-linejoin="round"/><path d="M19.52 53.56h22.4m-2.4-24.99l-3.2.81-3.2-.81V22h6.4v6.57z" fill="none" stroke="#6d6a69" stroke-linejoin="round" stroke-linecap="round" stroke-width="1.2"/></svg>