<svg id="Layer_1" data-name="Layer 1" xmlns="http://www.w3.org/2000/svg" viewBox="0 0 61.17 57.83"><defs><style>.cls-2{fill:none;stroke:#6d6a69;stroke-linejoin:round;stroke-linecap:round;stroke-width:1.2px}</style></defs><path d="M39.91 56.83c-6 0-5.4-.3-5.7-.5s0-11.7-1.7-25.6c-.5-4.3-1.3-6.9-2.2-13-.8 6-1.4 8.7-1.9 13A241.17 241.17 0 0 0 27 56c-.2.6.6.8-6 .8-5.7 0-5-.2-5.2-.6-.3-.6.8-16 .7-24.9s.4-24 1-25.5a1.3 1.3 0 0 1 .5-.7c.9-.4 2.1-.6 8.4-.6h8.1c7.8 0 8 .2 8.6.6s1.3 15 1.3 25.5 1.1 24.9 1 25.2c-.19.83.6 1.03-5.49 1.03z" stroke-width="1.6" fill="none" stroke="#6d6a69" stroke-linejoin="round"/><path class="cls-2" d="M30.21 13.73v-9.2"/><path d="M17.44 9.6l-.34-.66s-.68-.51-.33-.72c2.12-1.22 9.55-1.39 9.64-1.39h8.1c7.85 0 8.8.8 9.56 1.44l-1 1.27c-.5-.42-1.32-1.12-8.59-1.12h-8.1c-6.2.01-8.92 1.17-8.94 1.18z" fill="#6d6a69"/><path d="M16.71 30.73h7.3l-.8 11.9h-7.1m28.2-11.9h-7.4l.8 11.9h7.1" stroke-width="1.2" fill="none" stroke="#6d6a69" stroke-linejoin="round"/><path class="cls-2" d="M17.21 16.13l4.9-5m21.4 5l-4.9-5"/></svg>