<svg xmlns="http://www.w3.org/2000/svg" xmlns:svg="http://www.w3.org/2000/svg" viewBox="0 0 61.17 57.83">
 <defs>
  <style>.cls-1,.cls-2{fill:none;stroke:#6d6a69;stroke-linejoin:round}.cls-1{stroke-width:1.6px}.cls-2{stroke-linecap:round;stroke-width:1.2px}</style>
 </defs>
 <g>
  <title>Layer 1</title>
  <path fill="black" id="svg_1" d="m29.298479,53.23a5.59,5.59 0 0 1 -4.1,1.5a5.69,5.69 0 0 1 -4.6,-2c-1.1,-1.4 -1.7,-3.5 -1.7,-6.4c0,-2.5 0.2,-4.8 0.4,-7.1c0.2,-2.9 0.5,-6.2 0.5,-11s-0.3,-8 -0.5,-11c-0.2,-2.4 -0.4,-4.6 -0.4,-7.1c0,-5.5 2.2,-8.4 6.2,-8.4c2.8,0 6.2,1.5 6.2,8.4c0,2.5 -0.2,4.8 -0.4,7.1a98.8,98.8 0 0 0 -0.6,11a101.88,101.88 0 0 0 0.6,11c0.2,2.4 0.4,4.6 0.4,7.2c0,3.1 -0.7,5.4 -2,6.8z" class="cls-1"/>
  <path id="svg_2" d="m25.098479,22.33l0,-8.4m0,28.4l0,-8.4" class="cls-2"/>
  <path fill="black" id="svg_3" d="m30.698479,5.83a4.42,4.42 0 0 1 3.4,-2c4.1,0 6.2,7.1 6.2,10c0,2.5 -0.2,4.8 -0.4,7.1c-0.2,2.9 -0.5,6.2 -0.5,11s0.3,8 0.5,11c0.2,2.4 0.4,3.8 0.4,6.3c0,5.5 -2.2,7.6 -6.2,7.6c-2.1,0 -4.6,-0.7 -5.6,-3.7" class="cls-1"/>
  <path id="svg_4" d="m34.098479,37.83l0,8.5m0,-28.5l0,8.5" class="cls-2"/>
 </g>
</svg>