<svg id="Layer_1" data-name="Layer 1" xmlns="http://www.w3.org/2000/svg" viewBox="0 0 61.17 57.83"><defs><style>.cls-1,.cls-2{fill:none;stroke:#6d6a69;stroke-linejoin:round}.cls-1{stroke-width:1.6px}.cls-2{stroke-linecap:round;stroke-width:1.2px}</style></defs><path class="cls-1" d="M35.08 53.23a5.59 5.59 0 0 1-4.1 1.5 5.69 5.69 0 0 1-4.6-2c-1.1-1.4-1.7-3.5-1.7-6.4 0-2.5.2-4.8.4-7.1.2-2.9.5-6.2.5-11s-.3-8-.5-11c-.2-2.4-.4-4.6-.4-7.1 0-5.5 2.2-8.4 6.2-8.4 2.8 0 6.2 1.5 6.2 8.4 0 2.5-.2 4.8-.4 7.1a98.8 98.8 0 0 0-.6 11 101.88 101.88 0 0 0 .6 11c.2 2.4.4 4.6.4 7.2 0 3.1-.7 5.4-2 6.8z"/><path class="cls-2" d="M30.88 22.33v-8.4m0 28.4v-8.4"/><path class="cls-1" d="M36.48 5.83a4.42 4.42 0 0 1 3.4-2c4.1 0 6.2 7.1 6.2 10 0 2.5-.2 4.8-.4 7.1-.2 2.9-.5 6.2-.5 11s.3 8 .5 11c.2 2.4.4 3.8.4 6.3 0 5.5-2.2 7.6-6.2 7.6-2.1 0-4.6-.7-5.6-3.7"/><path class="cls-2" d="M39.88 37.83v8.5m0-28.5v8.5"/><path class="cls-1" d="M27.28 53.63c0 5.6-3.3 1.6-6 1.6s-6.2 5.7-6.2-5.2c0-2.5.2-4.8.4-7.1a98.8 98.8 0 0 0 .6-11 101.88 101.88 0 0 0-.6-11c-.2-2.4-.4-4.6-.4-7.2 0-3.2 2.3-10 6.2-10a4.9 4.9 0 0 1 3.8 2.4"/><path class="cls-2" d="M21.28 37.83v8.5m0-28.5v8.5"/></svg>