<svg id="Layer_1" data-name="Layer 1" xmlns="http://www.w3.org/2000/svg" viewBox="0 0 61.17 57.83"><defs><style>.cls-1{fill:none;stroke:#6d6a69;stroke-linejoin:round;stroke-width:1.6px}</style></defs><path class="cls-1" d="M22 12.23l-1.6.6c-1.1.1-8.7 3.3-10.3 7.3v.1l-7.3 27.5a5.14 5.14 0 0 0-.1 1.7 1.82 1.82 0 0 0 1.6 1.1l5.7.8c.2 0 .4.1.6.1 1.1 0 1.8-.7 2.1-2.2l4.5-20.3-.9 25c0 2.4 1.2 2.9 2.2 2.9h24c1 0 2.2-.5 2.2-2.9l-.9-25 4.5 20.3c.3 1.5 1 2.2 2.1 2.2a1.27 1.27 0 0 0 .6-.1l5.8-.9a1.87 1.87 0 0 0 1.5-1.1 2.54 2.54 0 0 0-.1-1.7L50.95 20v-.1c-1.6-4-9.2-7.1-10.3-7.3l-1.6-.4"/><path stroke-width="1.2" fill="none" stroke="#6d6a69" stroke-linejoin="round" d="M30.55 10.93v45.1"/><path class="cls-1" d="M39 13.13a2.9 2.9 0 0 1-2.9 2.9H24.85a2.9 2.9 0 0 1-2.9-2.9v-4.2A2.9 2.9 0 0 1 24.85 6h11.3A2.9 2.9 0 0 1 39 8.93v4.2z"/><path class="cls-1" d="M39 8.33a2.9 2.9 0 0 1-2.9 2.9H24.85a2.9 2.9 0 0 1-2.9-2.9"/><path d="M20.15 51.73h20.8m-20.8-7.8h20.8m-20.8-7.8h20.8m-20.8-7.8h20.8m-20.8-7.8h20.8m-36.4 22.4A1.82 1.82 0 0 0 6.15 44l4.1.8m-4.1-9.87A1.82 1.82 0 0 0 7.75 36l4.1.8m-3.3-9.87a1.82 1.82 0 0 0 1.6 1.1l4.1.8m-3.1-9.1a1.82 1.82 0 0 0 1.6 1.1l4.1.8m33.7 23l4.1-.8a2 2 0 0 0 1.6-1.1m-7.4-5.8l4.1-.8a2 2 0 0 0 1.6-1.1m-8.1-6.1l4.1-.8a2 2 0 0 0 1.6-1.1m-8.4-5.3l4.1-.8a2 2 0 0 0 1.6-1.1" stroke-width="1.2" stroke-linecap="round" fill="none" stroke="#6d6a69" stroke-linejoin="round"/></svg>